# xmcd CD database file
#
# Track frame offsets:
#	150
#	18772
#	40342
#	62842
#	83052
#	103795
#	122810
#	144222
#	165575
#
# Disc length: 2502 seconds
#
# Revision: 1
# Processed by: cddbd v1.5.2PL0 Copyright (c) Steve Scherf et al.
# Submitted via: jetAudio 7
#
DISCID=6c09c409
DTITLE=Varios Artistas - Artistas Varios
DYEAR=1997
DGENRE=Merengue
TTITLE0=A que te pego mi mania
TTITLE1=Sufriendo por ella
TTITLE2=Entre tu cuerpo y el mio
TTITLE3=Me equivoque
TTITLE4=No puedo olvidarla
TTITLE5=El baile del cuela
TTITLE6=La seria
TTITLE7=Yo soy la bomba
TTITLE8=Te sigo amando
EXTD=YEAR: 1997
EXTT0=
EXTT1=
EXTT2=
EXTT3=
EXTT4=
EXTT5=
EXTT6=
EXTT7=
EXTT8=
PLAYORDER=
